<?xml version="1.0" standalone="no"?>
<!DOCTYPE svg PUBLIC "-//W3C//DTD SVG 20010904//EN"
 "http://www.w3.org/TR/2001/REC-SVG-20010904/DTD/svg10.dtd">
<svg version="1.0" xmlns="http://www.w3.org/2000/svg"
 width="388.000000pt" height="388.000000pt" viewBox="0 0 388.000000 388.000000"
 preserveAspectRatio="xMidYMid meet">
<metadata>
Created by potrace 1.11, written by Peter Selinger 2001-2013
</metadata>
<g transform="translate(0.000000,388.000000) scale(0.100000,-0.100000)"
fill="#000000" stroke="none">
<path d="M1555 3860 c-61 -9 -156 -46 -232 -91 -60 -36 -147 -118 -254 -239
-46 -53 -91 -90 -151 -127 -134 -82 -201 -169 -227 -294 -12 -55 -11 -68 15
-211 13 -71 -15 -112 -87 -127 l-31 -6 22 -28 c13 -16 40 -39 61 -53 26 -16
39 -32 39 -47 1 -37 27 -98 49 -114 20 -14 20 -15 4 -46 -17 -33 -24 -119 -11
-133 5 -4 16 0 26 9 10 10 22 14 25 10 13 -12 7 -67 -13 -123 -38 -108 -19
-313 40 -436 33 -67 116 -181 154 -211 17 -13 30 -41 41 -84 23 -86 97 -291
149 -409 l43 -95 -44 -33 -43 -33 0 -89 0 -89 -37 -9 c-148 -34 -183 -46 -226
-75 -55 -37 -101 -101 -122 -168 -9 -31 -16 -129 -21 -273 l-7 -224 82 -1 c44
0 81 2 81 6 0 3 -23 82 -50 175 -49 162 -51 171 -41 236 12 87 22 112 67 162
47 52 73 65 176 90 103 25 98 25 98 -5 0 -37 61 -98 127 -128 32 -14 161 -57
286 -95 125 -38 230 -71 232 -74 13 -12 26 -161 23 -258 l-3 -111 35 3 35 3 3
105 c2 58 -2 134 -8 169 -6 35 -9 65 -6 68 2 2 18 -3 36 -12 18 -9 34 -14 38
-11 6 7 9 4 -50 45 -40 27 -48 37 -48 64 0 37 -8 51 -33 60 -23 9 -57 -9 -57
-28 0 -19 -4 -19 -39 0 -16 8 -103 44 -192 80 -231 93 -308 131 -321 161 -6
13 -9 27 -5 30 3 3 59 -17 124 -44 65 -28 132 -54 148 -58 27 -6 28 -5 15 9
-8 8 -55 38 -105 65 -159 89 -174 99 -181 127 -8 33 8 69 41 91 24 16 26 16
40 -2 7 -10 16 -31 19 -46 7 -36 94 -96 274 -189 168 -87 294 -176 352 -251
23 -29 45 -54 49 -56 4 -1 22 18 40 43 66 91 222 200 452 315 130 65 189 103
189 122 0 7 12 24 26 40 21 21 31 25 44 18 28 -15 40 -62 28 -107 -9 -39 -11
-40 -215 -141 -113 -57 -203 -105 -200 -108 3 -3 75 22 161 56 167 65 216 79
216 62 0 -14 -98 -60 -293 -138 -157 -62 -159 -62 -178 -43 -10 10 -25 19 -33
19 -23 0 -46 -29 -46 -58 0 -23 -10 -32 -63 -60 -69 -37 -113 -70 -104 -78 3
-3 16 0 28 7 13 6 45 18 72 25 44 12 48 11 42 -4 -11 -26 -19 -253 -11 -305 7
-45 9 -47 39 -47 l32 0 0 168 c0 92 3 178 7 192 7 23 23 31 163 73 207 63 319
104 349 128 14 11 37 42 52 69 31 56 30 56 137 36 94 -18 145 -44 189 -96 39
-45 55 -90 64 -176 5 -52 0 -78 -45 -221 -28 -89 -51 -164 -51 -167 0 -3 36
-6 80 -6 l80 0 0 163 c0 294 -22 389 -109 470 -53 50 -122 79 -229 97 -40 7
-75 17 -78 24 -2 6 0 32 4 58 11 59 -6 114 -47 147 l-29 25 34 67 c48 96 106
244 149 384 21 66 44 123 51 128 25 15 138 173 165 232 51 111 75 303 48 398
-6 21 -26 56 -45 76 -45 50 -44 83 1 140 20 25 38 54 41 67 4 15 15 23 37 27
18 3 44 10 59 16 l28 10 -25 37 c-29 43 -30 64 -10 159 17 80 19 219 5 318
-13 88 -46 151 -110 211 l-52 49 27 48 26 49 -55 -6 c-48 -6 -60 -3 -100 20
-24 14 -78 66 -119 114 -144 170 -256 251 -393 287 -84 22 -456 22 -509 -1
-34 -14 -41 -14 -98 5 -108 36 -218 46 -322 31z m749 -826 c3 -26 6 -62 6 -81
0 -102 53 -257 109 -316 30 -33 91 -67 119 -67 16 0 28 -15 51 -64 2 -5 -5 -6
-15 -2 -108 42 -387 9 -434 -52 -21 -26 -26 -57 -11 -66 5 -3 59 5 120 19 235
53 349 41 481 -53 l24 -17 -24 39 c-22 36 -22 39 -4 32 10 -4 34 -10 52 -13
72 -12 103 -103 105 -308 2 -129 -1 -163 -22 -247 l-25 -98 -95 0 c-132 0
-245 27 -446 103 l-170 65 -3 86 c-1 47 -1 86 1 86 3 0 31 -16 63 -36 48 -29
66 -34 94 -30 19 3 108 6 197 6 l162 0 53 49 53 49 -20 37 c-43 82 -140 127
-275 127 -141 1 -248 -55 -300 -155 l-22 -42 7 54 c3 30 9 68 12 85 l5 31 -17
-23 c-19 -26 -45 -175 -45 -260 l0 -54 -42 7 c-103 18 -179 2 -398 -82 -207
-80 -265 -94 -412 -100 l-127 -6 -10 39 c-35 132 -43 200 -39 343 6 166 16
205 59 220 17 6 43 19 58 31 37 25 45 25 31 0 -11 -21 3 -29 15 -10 13 21 125
70 183 79 68 11 160 2 289 -29 108 -26 133 -26 133 -1 0 35 -12 52 -50 71 -36
19 -185 50 -236 50 l-24 0 20 33 c32 51 58 147 70 259 18 172 27 206 60 223
37 19 111 19 196 -1 37 -8 73 -13 80 -10 8 3 27 1 42 -5 29 -12 81 -4 202 31
101 29 106 28 114 -26z m-829 -452 c-10 -32 -21 -52 -30 -52 -11 0 -9 13 12
55 15 30 28 53 30 51 2 -1 -4 -26 -12 -54z m1644 -391 c24 -74 4 -255 -39
-357 -21 -48 -120 -193 -132 -193 -5 -1 -8 8 -8 20 0 11 -4 29 -10 39 -8 15
-6 20 10 25 11 3 29 21 41 38 l22 32 -29 -27 c-26 -25 -74 -39 -74 -22 0 3 9
40 19 82 11 43 23 102 26 132 4 35 15 66 30 84 l22 28 13 -50 c6 -28 9 -65 5
-83 -5 -20 -4 -29 3 -25 20 12 24 84 7 142 -17 58 -14 104 7 104 13 0 35 26
49 59 11 28 21 20 38 -28z m-2207 -47 c13 -40 15 -60 8 -79 -14 -37 -12 -106
5 -135 13 -24 13 -23 8 17 -3 23 -2 58 1 79 l7 37 29 -34 c16 -19 29 -45 30
-59 0 -14 9 -65 20 -114 11 -50 20 -94 20 -98 0 -19 -36 -6 -67 24 -42 40 -43
30 -2 -17 17 -19 40 -35 51 -35 17 0 18 -2 8 -15 -7 -8 -16 -30 -19 -48 l-7
-32 -52 70 c-68 92 -97 153 -116 247 -18 86 -21 213 -6 252 9 25 10 25 37 9
20 -11 33 -31 45 -69z m1519 70 c17 -21 0 -49 -31 -49 -27 0 -46 25 -37 49 8
21 51 21 68 0z m152 0 c57 -19 112 -76 98 -102 -28 -51 -64 -68 -138 -64 l-33
2 20 33 c24 38 25 66 6 112 -17 40 -16 41 47 19z m-280 -52 c-4 -34 -1 -58 11
-79 14 -28 14 -32 0 -37 -30 -11 -67 -6 -100 15 -38 23 -40 29 -19 69 13 25
86 80 107 80 4 0 4 -22 1 -48z m-363 -1556 c19 -3 62 -2 95 3 33 5 62 7 64 5
2 -2 -26 -17 -61 -35 l-64 -31 -69 36 c-74 38 -74 38 35 22z m-2 -94 c-8 -9
-14 -10 -16 -3 -2 6 -11 11 -20 11 -9 1 -38 20 -64 44 l-47 43 79 -40 c66 -34
77 -43 68 -55z m117 28 c-10 -11 -26 -20 -36 -20 -10 0 -21 -4 -24 -10 -3 -5
-12 -10 -18 -10 -16 1 20 28 58 46 40 18 41 17 20 -6z"/>
<path d="M1376 2275 c-66 -18 -126 -62 -151 -108 l-20 -37 50 -50 51 -51 209
-3 209 -4 47 30 c46 28 47 30 37 58 -17 50 -93 125 -150 150 -66 29 -207 37
-282 15z m39 -65 c-19 -37 -19 -99 0 -126 18 -27 11 -34 -36 -34 -38 0 -89 32
-109 70 -18 34 48 92 125 111 17 4 31 7 33 8 1 1 -4 -12 -13 -29z m115 15 c14
-17 5 -51 -16 -59 -22 -8 -54 11 -54 32 0 38 46 56 70 27z m181 -46 c27 -19
59 -66 59 -86 0 -19 -60 -43 -109 -43 l-51 0 20 33 c22 35 25 72 10 111 -9 24
-8 25 17 15 14 -5 39 -19 54 -30z"/>
<path d="M2920 271 c0 -5 -4 -43 -9 -83 -5 -40 -12 -97 -15 -125 l-5 -53 33 0
c32 0 33 1 39 51 6 49 -7 190 -18 210 -8 12 -25 12 -25 0z"/>
<path d="M986 238 c-7 -41 -10 -128 -8 -185 2 -41 3 -43 33 -43 l32 0 -7 93
c-9 113 -18 159 -33 164 -7 3 -14 -10 -17 -29z"/>
</g>
</svg>
